<svg width="89" height="91" viewBox="0 0 89 91" fill="none" xmlns="http://www.w3.org/2000/svg">
<path fill-rule="evenodd" clip-rule="evenodd" d="M57.6854 10.473C57.6854 16.2571 52.3445 20.946 45.7561 20.946C39.1677 20.946 33.8268 16.2571 33.8268 10.473C33.8268 4.6889 39.1677 0 45.7561 0C52.3445 0 57.6854 4.6889 57.6854 10.473ZM0 26.6586C0 24.7544 55.0709 22.5329 58.9928 26.6586C62.9148 30.7843 49.3523 59.347 28.2717 84.2601C18.7505 95.5123 21.4969 90.1584 26.7694 79.8803C33.1705 67.402 43.295 47.6655 39.7107 41.5747C35.1685 33.856 17.7634 30.5815 7.56567 28.6629C3.08813 27.8206 0 27.2396 0 26.6586ZM88.7344 26.4999H64.8757C64.8757 50.6195 52.2928 68.6746 35.8876 86.0752C19.4823 103.476 65.1455 69.8936 72.8008 60.626C82.9513 48.3376 90.5353 26.4999 88.7344 26.4999Z" fill="#059AE0"/>
</svg>
