<svg width="100" height="115" viewBox="0 0 100 115" fill="none" xmlns="http://www.w3.org/2000/svg">
<path fill-rule="evenodd" clip-rule="evenodd" d="M50 0H0V115H100V0H50ZM57.5193 42.5313L63.3812 43.7618C63.9955 43.89 64.4296 44.3872 64.4296 44.9614C64.4296 58.1118 52.7114 68.75 38.2766 68.75C37.6396 68.75 37.0986 68.3501 36.9576 67.7964L35.6049 62.4645C35.4584 61.8852 35.7909 61.2904 36.394 61.0495L42.7068 58.5886C43.2592 58.3733 43.9017 58.5168 44.285 58.9424L47.0806 62.0492C51.494 60.1677 55.0393 56.8967 57.0684 52.9644L53.6527 50.4215C53.1849 50.078 53.0271 49.4884 53.2638 48.986L55.9693 43.244C56.2286 42.7005 56.8824 42.398 57.5193 42.5313Z" fill="#19B5FE" fill-opacity="0.7"/>
</svg>
